<svg width="526" height="148" viewBox="0 0 526 148" fill="none" xmlns="http://www.w3.org/2000/svg">
<g clip-path="url(#clip0)">
<path d="M86.84 101H63.584L24.688 42.112V101H1.432V5.528H24.688L63.584 64.688V5.528H86.84V101ZM99.0736 62.92C99.0736 55.1227 100.524 48.2773 103.426 42.384C106.418 36.4907 110.452 31.9573 115.53 28.784C120.607 25.6107 126.274 24.024 132.53 24.024C137.879 24.024 142.548 25.112 146.538 27.288C150.618 29.464 153.746 32.32 155.922 35.856V25.112H179.178V101H155.922V90.256C153.655 93.792 150.482 96.648 146.402 98.824C142.412 101 137.743 102.088 132.394 102.088C126.228 102.088 120.607 100.501 115.53 97.328C110.452 94.064 106.418 89.4853 103.426 83.592C100.524 77.608 99.0736 70.7173 99.0736 62.92ZM155.922 63.056C155.922 57.2533 154.29 52.6747 151.026 49.32C147.852 45.9653 143.954 44.288 139.33 44.288C134.706 44.288 130.762 45.9653 127.498 49.32C124.324 52.584 122.738 57.1173 122.738 62.92C122.738 68.7227 124.324 73.3467 127.498 76.792C130.762 80.1467 134.706 81.824 139.33 81.824C143.954 81.824 147.852 80.1467 151.026 76.792C154.29 73.4373 155.922 68.8587 155.922 63.056ZM411.316 101L388.196 69.176V101H364.94V0.359999H388.196V55.984L411.18 25.112H439.876L408.324 63.192L440.148 101H411.316ZM444.386 62.92C444.386 55.1227 445.837 48.2773 448.738 42.384C451.73 36.4907 455.765 31.9573 460.842 28.784C465.919 25.6107 471.586 24.024 477.842 24.024C483.191 24.024 487.861 25.112 491.85 27.288C495.93 29.464 499.058 32.32 501.234 35.856V25.112H524.49V101H501.234V90.256C498.967 93.792 495.794 96.648 491.714 98.824C487.725 101 483.055 102.088 477.706 102.088C471.541 102.088 465.919 100.501 460.842 97.328C455.765 94.064 451.73 89.4853 448.738 83.592C445.837 77.608 444.386 70.7173 444.386 62.92ZM501.234 63.056C501.234 57.2533 499.602 52.6747 496.338 49.32C493.165 45.9653 489.266 44.288 484.642 44.288C480.018 44.288 476.074 45.9653 472.81 49.32C469.637 52.584 468.05 57.1173 468.05 62.92C468.05 68.7227 469.637 73.3467 472.81 76.792C476.074 80.1467 480.018 81.824 484.642 81.824C489.266 81.824 493.165 80.1467 496.338 76.792C499.602 73.4373 501.234 68.8587 501.234 63.056Z" fill="#174A9F"/>
<path d="M230.138 79.24L246.594 25.112H271.346L244.418 101H215.722L188.794 25.112H213.682L230.138 79.24ZM352.671 61.832C352.671 64.008 352.535 66.2747 352.263 68.632H299.631C299.994 73.3467 301.49 76.9733 304.119 79.512C306.839 81.96 310.148 83.184 314.047 83.184C319.85 83.184 323.884 80.736 326.151 75.84H350.903C349.634 80.8267 347.322 85.3147 343.967 89.304C340.703 93.2933 336.578 96.4213 331.591 98.688C326.604 100.955 321.028 102.088 314.863 102.088C307.428 102.088 300.81 100.501 295.007 97.328C289.204 94.1547 284.671 89.6213 281.407 83.728C278.143 77.8347 276.511 70.944 276.511 63.056C276.511 55.168 278.098 48.2773 281.271 42.384C284.535 36.4907 289.068 31.9573 294.871 28.784C300.674 25.6107 307.338 24.024 314.863 24.024C322.207 24.024 328.735 25.5653 334.447 28.648C340.159 31.7307 344.602 36.128 347.775 41.84C351.039 47.552 352.671 54.216 352.671 61.832ZM328.871 55.712C328.871 51.7227 327.511 48.5493 324.791 46.192C322.071 43.8347 318.671 42.656 314.591 42.656C310.692 42.656 307.383 43.7893 304.663 46.056C302.034 48.3227 300.402 51.5413 299.767 55.712H328.871Z" fill="#00AF1D"/>
<path d="M19.2041 142H16.7139V131.922H5.43457V142H2.94434V120.584H5.43457V129.695H16.7139V120.584H19.2041V142ZM33.6996 142L33.2162 139.715H33.099C32.2982 140.721 31.4975 141.404 30.6967 141.766C29.9057 142.117 28.9145 142.293 27.723 142.293C26.1313 142.293 24.8813 141.883 23.973 141.062C23.0746 140.242 22.6254 139.075 22.6254 137.562C22.6254 134.319 25.2182 132.62 30.4037 132.464L33.1283 132.376V131.38C33.1283 130.12 32.8549 129.192 32.308 128.597C31.7709 127.991 30.9066 127.688 29.7152 127.688C28.3773 127.688 26.8637 128.099 25.1742 128.919L24.4271 127.059C25.2182 126.629 26.0824 126.292 27.0199 126.048C27.9672 125.804 28.9145 125.682 29.8617 125.682C31.7758 125.682 33.1918 126.106 34.1098 126.956C35.0375 127.806 35.5014 129.168 35.5014 131.043V142H33.6996ZM28.2064 140.286C29.7201 140.286 30.9066 139.871 31.766 139.041C32.6352 138.211 33.0697 137.049 33.0697 135.555V134.104L30.6381 134.207C28.7045 134.275 27.308 134.578 26.4486 135.115C25.599 135.643 25.1742 136.468 25.1742 137.591C25.1742 138.47 25.4379 139.139 25.9652 139.598C26.5023 140.057 27.2494 140.286 28.2064 140.286ZM38.7908 132.376C38.7908 128.86 39.3084 126.121 40.3436 124.158C41.3787 122.186 43.0193 120.955 45.2654 120.467C48.0584 119.871 50.5193 119.388 52.6482 119.017L53.1023 121.155C49.7137 121.722 47.2918 122.171 45.8367 122.503C44.4207 122.825 43.3563 123.587 42.6434 124.788C41.9402 125.989 41.5545 127.625 41.4861 129.695H41.6619C42.2674 128.875 43.0486 128.23 44.0057 127.762C44.9627 127.293 45.9637 127.059 47.0086 127.059C48.9813 127.059 50.5193 127.698 51.6229 128.978C52.7264 130.257 53.2781 132.029 53.2781 134.295C53.2781 136.805 52.6385 138.768 51.3592 140.184C50.0799 141.59 48.2977 142.293 46.0125 142.293C43.7566 142.293 41.9891 141.429 40.7098 139.7C39.4305 137.972 38.7908 135.53 38.7908 132.376ZM46.2322 140.257C49.2107 140.257 50.7 138.357 50.7 134.559C50.7 130.936 49.3475 129.124 46.6424 129.124C45.9002 129.124 45.1824 129.28 44.4891 129.593C43.8055 129.896 43.1756 130.301 42.5994 130.809C42.033 131.316 41.5936 131.839 41.2811 132.376C41.2811 134.944 41.6863 136.902 42.4969 138.25C43.3074 139.588 44.5525 140.257 46.2322 140.257ZM70.4836 133.958C70.4836 136.575 69.8244 138.621 68.5061 140.096C67.1877 141.561 65.3664 142.293 63.0422 142.293C61.6066 142.293 60.3322 141.956 59.2189 141.282C58.1057 140.608 57.2463 139.642 56.6408 138.382C56.0354 137.122 55.7326 135.647 55.7326 133.958C55.7326 131.341 56.3869 129.305 57.6955 127.85C59.0041 126.385 60.8205 125.652 63.1447 125.652C65.3908 125.652 67.173 126.399 68.4914 127.894C69.8195 129.388 70.4836 131.409 70.4836 133.958ZM58.2521 133.958C58.2521 136.009 58.6623 137.571 59.4826 138.646C60.3029 139.72 61.509 140.257 63.1008 140.257C64.6926 140.257 65.8986 139.725 66.7189 138.66C67.549 137.586 67.9641 136.019 67.9641 133.958C67.9641 131.917 67.549 130.369 66.7189 129.314C65.8986 128.25 64.6828 127.718 63.0715 127.718C61.4797 127.718 60.2785 128.24 59.468 129.285C58.6574 130.33 58.2521 131.888 58.2521 133.958ZM81.3316 142.293C80.2867 142.293 79.3297 142.103 78.4605 141.722C77.6012 141.331 76.8785 140.735 76.2926 139.935H76.1168C76.234 140.872 76.2926 141.761 76.2926 142.601V149.207H73.8609V125.945H75.8385L76.1754 128.143H76.2926C76.9176 127.264 77.6451 126.629 78.4752 126.238C79.3053 125.848 80.2574 125.652 81.3316 125.652C83.4605 125.652 85.1012 126.38 86.2535 127.835C87.4156 129.29 87.9967 131.331 87.9967 133.958C87.9967 136.595 87.4059 138.646 86.2242 140.11C85.0523 141.565 83.4215 142.293 81.3316 142.293ZM80.9801 127.718C79.3395 127.718 78.1529 128.172 77.4205 129.08C76.6881 129.988 76.3121 131.434 76.2926 133.416V133.958C76.2926 136.214 76.6686 137.83 77.4205 138.807C78.1725 139.773 79.3785 140.257 81.0387 140.257C82.4254 140.257 83.5094 139.695 84.2906 138.572C85.0816 137.449 85.4771 135.901 85.4771 133.929C85.4771 131.927 85.0816 130.394 84.2906 129.329C83.5094 128.255 82.4059 127.718 80.9801 127.718ZM93.791 132.581H98.1709C100.212 132.581 101.721 132.962 102.697 133.724C103.684 134.476 104.177 135.604 104.177 137.107C104.177 138.719 103.654 139.939 102.609 140.77C101.574 141.59 100.046 142 98.0244 142H91.3594V125.945H93.791V132.581ZM109.304 142H106.872V125.945H109.304V142ZM93.791 134.676V139.964H97.9072C100.485 139.964 101.774 139.061 101.774 137.254C101.774 136.355 101.477 135.701 100.881 135.291C100.285 134.881 99.2695 134.676 97.834 134.676H93.791ZM386.592 142H383.574L373.672 131.146V142H371.181V120.584H373.672V130.955L383.325 120.584H386.181L376.704 130.984L386.592 142ZM398.157 142L397.674 139.715H397.557C396.756 140.721 395.955 141.404 395.154 141.766C394.363 142.117 393.372 142.293 392.181 142.293C390.589 142.293 389.339 141.883 388.431 141.062C387.532 140.242 387.083 139.075 387.083 137.562C387.083 134.319 389.676 132.62 394.862 132.464L397.586 132.376V131.38C397.586 130.12 397.313 129.192 396.766 128.597C396.229 127.991 395.364 127.688 394.173 127.688C392.835 127.688 391.321 128.099 389.632 128.919L388.885 127.059C389.676 126.629 390.54 126.292 391.478 126.048C392.425 125.804 393.372 125.682 394.32 125.682C396.234 125.682 397.65 126.106 398.568 126.956C399.495 127.806 399.959 129.168 399.959 131.043V142H398.157ZM392.664 140.286C394.178 140.286 395.364 139.871 396.224 139.041C397.093 138.211 397.528 137.049 397.528 135.555V134.104L395.096 134.207C393.162 134.275 391.766 134.578 390.906 135.115C390.057 135.643 389.632 136.468 389.632 137.591C389.632 138.47 389.896 139.139 390.423 139.598C390.96 140.057 391.707 140.286 392.664 140.286ZM406.515 125.945V132.669H415.509V125.945H417.941V142H415.509V134.764H406.515V142H404.084V125.945H406.515ZM432.07 142L431.587 139.715H431.47C430.669 140.721 429.868 141.404 429.067 141.766C428.276 142.117 427.285 142.293 426.094 142.293C424.502 142.293 423.252 141.883 422.344 141.062C421.445 140.242 420.996 139.075 420.996 137.562C420.996 134.319 423.589 132.62 428.774 132.464L431.499 132.376V131.38C431.499 130.12 431.226 129.192 430.679 128.597C430.142 127.991 429.277 127.688 428.086 127.688C426.748 127.688 425.234 128.099 423.545 128.919L422.798 127.059C423.589 126.629 424.453 126.292 425.391 126.048C426.338 125.804 427.285 125.682 428.232 125.682C430.146 125.682 431.562 126.106 432.48 126.956C433.408 127.806 433.872 129.168 433.872 131.043V142H432.07ZM426.577 140.286C428.091 140.286 429.277 139.871 430.137 139.041C431.006 138.211 431.44 137.049 431.44 135.555V134.104L429.009 134.207C427.075 134.275 425.679 134.578 424.819 135.115C423.97 135.643 423.545 136.468 423.545 137.591C423.545 138.47 423.809 139.139 424.336 139.598C424.873 140.057 425.62 140.286 426.577 140.286ZM449.964 142H447.503V128.025H442.684C442.42 131.502 442.054 134.261 441.585 136.302C441.117 138.343 440.506 139.837 439.754 140.784C439.012 141.731 438.065 142.205 436.913 142.205C436.385 142.205 435.965 142.146 435.653 142.029V140.228C435.868 140.286 436.112 140.315 436.385 140.315C437.508 140.315 438.402 139.129 439.066 136.756C439.73 134.383 440.233 130.779 440.575 125.945H449.964V142ZM456.667 132.581H461.618C465.72 132.581 467.77 134.09 467.77 137.107C467.77 138.689 467.233 139.9 466.159 140.74C465.095 141.58 463.532 142 461.471 142H454.235V125.945H456.667V132.581ZM456.667 134.676V139.964H461.354C462.643 139.964 463.63 139.739 464.313 139.29C464.997 138.841 465.339 138.162 465.339 137.254C465.339 136.365 465.021 135.716 464.387 135.306C463.762 134.886 462.726 134.676 461.281 134.676H456.667ZM473.521 125.945V132.669H482.515V125.945H484.946V142H482.515V134.764H473.521V142H471.089V125.945H473.521ZM491.634 132.581H496.014C498.055 132.581 499.564 132.962 500.541 133.724C501.527 134.476 502.02 135.604 502.02 137.107C502.02 138.719 501.498 139.939 500.453 140.77C499.418 141.59 497.889 142 495.868 142H489.203V125.945H491.634V132.581ZM507.147 142H504.715V125.945H507.147V142ZM491.634 134.676V139.964H495.751C498.329 139.964 499.618 139.061 499.618 137.254C499.618 136.355 499.32 135.701 498.724 135.291C498.129 134.881 497.113 134.676 495.677 134.676H491.634ZM518.2 142.293C515.827 142.293 513.952 141.57 512.575 140.125C511.208 138.68 510.524 136.673 510.524 134.104C510.524 131.517 511.159 129.461 512.429 127.938C513.708 126.414 515.422 125.652 517.57 125.652C519.582 125.652 521.174 126.316 522.346 127.645C523.518 128.963 524.104 130.706 524.104 132.874V134.412H513.044C513.093 136.297 513.566 137.728 514.465 138.704C515.373 139.681 516.647 140.169 518.288 140.169C520.017 140.169 521.726 139.808 523.415 139.085V141.253C522.556 141.624 521.74 141.888 520.969 142.044C520.207 142.21 519.284 142.293 518.2 142.293ZM517.541 127.688C516.252 127.688 515.222 128.108 514.45 128.948C513.688 129.788 513.239 130.95 513.103 132.435H521.496C521.496 130.901 521.154 129.729 520.471 128.919C519.787 128.099 518.811 127.688 517.541 127.688Z" fill="#174A9F"/>
<path d="M120.834 120.584H126.884C129.725 120.584 131.781 121.009 133.051 121.858C134.32 122.708 134.955 124.051 134.955 125.887C134.955 127.156 134.598 128.206 133.886 129.036C133.182 129.856 132.152 130.389 130.795 130.633V130.779C134.047 131.336 135.673 133.045 135.673 135.906C135.673 137.82 135.023 139.314 133.724 140.389C132.435 141.463 130.629 142 128.304 142H120.834V120.584ZM123.324 129.754H127.426C129.183 129.754 130.448 129.48 131.22 128.934C131.991 128.377 132.377 127.444 132.377 126.136C132.377 124.935 131.947 124.07 131.088 123.543C130.228 123.006 128.861 122.737 126.986 122.737H123.324V129.754ZM123.324 131.863V139.876H127.792C129.52 139.876 130.819 139.544 131.688 138.88C132.567 138.206 133.007 137.156 133.007 135.73C133.007 134.402 132.557 133.426 131.659 132.801C130.77 132.176 129.413 131.863 127.587 131.863H123.324ZM145.803 142.293C143.43 142.293 141.555 141.57 140.178 140.125C138.811 138.68 138.127 136.673 138.127 134.104C138.127 131.517 138.762 129.461 140.031 127.938C141.311 126.414 143.025 125.652 145.173 125.652C147.185 125.652 148.777 126.316 149.948 127.645C151.12 128.963 151.706 130.706 151.706 132.874V134.412H140.647C140.696 136.297 141.169 137.728 142.068 138.704C142.976 139.681 144.25 140.169 145.891 140.169C147.619 140.169 149.328 139.808 151.018 139.085V141.253C150.158 141.624 149.343 141.888 148.571 142.044C147.81 142.21 146.887 142.293 145.803 142.293ZM145.144 127.688C143.855 127.688 142.824 128.108 142.053 128.948C141.291 129.788 140.842 130.95 140.705 132.435H149.099C149.099 130.901 148.757 129.729 148.073 128.919C147.39 128.099 146.413 127.688 145.144 127.688ZM157.398 125.945V132.669H166.392V125.945H168.824V142H166.392V134.764H157.398V142H154.966V125.945H157.398ZM183.905 128.025H178.69V142H176.259V128.025H171.103V125.945H183.905V128.025ZM188.469 125.945V136.126L188.367 138.792L188.323 139.627L197.009 125.945H200.041V142H197.771V132.186L197.815 130.252L197.888 128.348L189.216 142H186.184V125.945H188.469ZM216.265 142H213.804V128.025H208.985C208.721 131.502 208.355 134.261 207.887 136.302C207.418 138.343 206.807 139.837 206.055 140.784C205.313 141.731 204.366 142.205 203.214 142.205C202.686 142.205 202.266 142.146 201.954 142.029V140.228C202.169 140.286 202.413 140.315 202.686 140.315C203.809 140.315 204.703 139.129 205.367 136.756C206.031 134.383 206.534 130.779 206.876 125.945H216.265V142ZM221.342 142H218.5L223.114 135.218C221.874 134.944 220.922 134.417 220.258 133.636C219.604 132.845 219.277 131.854 219.277 130.662C219.277 129.197 219.77 128.045 220.756 127.205C221.742 126.365 223.119 125.945 224.887 125.945H232.035V142H229.604V135.584H225.546L221.342 142ZM221.65 130.691C221.65 132.547 222.997 133.475 225.693 133.475H229.604V128.055H225.195C222.831 128.055 221.65 128.934 221.65 130.691ZM251.965 147.552H249.534V142H236.306V125.945H238.738V139.905H247.263V125.945H249.695V139.905H251.965V147.552ZM256.471 125.945V136.126L256.368 138.792L256.324 139.627L265.011 125.945H268.043V142H265.772V132.186L265.816 130.252L265.89 128.348L257.218 142H254.186V125.945H256.471ZM286.157 133.958C286.157 136.575 285.497 138.621 284.179 140.096C282.861 141.561 281.039 142.293 278.715 142.293C277.28 142.293 276.005 141.956 274.892 141.282C273.779 140.608 272.919 139.642 272.314 138.382C271.708 137.122 271.406 135.647 271.406 133.958C271.406 131.341 272.06 129.305 273.369 127.85C274.677 126.385 276.494 125.652 278.818 125.652C281.064 125.652 282.846 126.399 284.164 127.894C285.493 129.388 286.157 131.409 286.157 133.958ZM273.925 133.958C273.925 136.009 274.335 137.571 275.156 138.646C275.976 139.72 277.182 140.257 278.774 140.257C280.366 140.257 281.572 139.725 282.392 138.66C283.222 137.586 283.637 136.019 283.637 133.958C283.637 131.917 283.222 130.369 282.392 129.314C281.572 128.25 280.356 127.718 278.745 127.718C277.153 127.718 275.952 128.24 275.141 129.285C274.33 130.33 273.925 131.888 273.925 133.958ZM291.966 125.945V132.669H300.96V125.945H303.391V142H300.96V134.764H291.966V142H289.534V125.945H291.966ZM310.079 125.945V132.669H319.073V125.945H321.505V142H319.073V134.764H310.079V142H307.648V125.945H310.079ZM328.193 132.581H332.573C334.614 132.581 336.123 132.962 337.099 133.724C338.086 134.476 338.579 135.604 338.579 137.107C338.579 138.719 338.056 139.939 337.011 140.77C335.976 141.59 334.448 142 332.426 142H325.761V125.945H328.193V132.581ZM343.706 142H341.274V125.945H343.706V142ZM328.193 134.676V139.964H332.309C334.887 139.964 336.176 139.061 336.176 137.254C336.176 136.355 335.879 135.701 335.283 135.291C334.687 134.881 333.671 134.676 332.236 134.676H328.193ZM354.759 142.293C352.386 142.293 350.511 141.57 349.134 140.125C347.767 138.68 347.083 136.673 347.083 134.104C347.083 131.517 347.718 129.461 348.987 127.938C350.267 126.414 351.98 125.652 354.129 125.652C356.141 125.652 357.732 126.316 358.904 127.645C360.076 128.963 360.662 130.706 360.662 132.874V134.412H349.603C349.651 136.297 350.125 137.728 351.023 138.704C351.932 139.681 353.206 140.169 354.847 140.169C356.575 140.169 358.284 139.808 359.974 139.085V141.253C359.114 141.624 358.299 141.888 357.527 142.044C356.766 142.21 355.843 142.293 354.759 142.293ZM354.1 127.688C352.811 127.688 351.78 128.108 351.009 128.948C350.247 129.788 349.798 130.95 349.661 132.435H358.055C358.055 130.901 357.713 129.729 357.029 128.919C356.346 128.099 355.369 127.688 354.1 127.688Z" fill="#00AF1D"/>
<path d="M317.5 0.434204L352.75 0.434204V31.5L317.5 0.434204Z" fill="#00AF1D"/>
<path d="M326 4L349 4V24L326 4Z" fill="white"/>
</g>
<defs>
<clipPath id="clip0">
<rect width="526" height="148" fill="white"/>
</clipPath>
</defs>
</svg>
