<svg width="268" height="68" viewBox="0 0 268 68" fill="none" xmlns="http://www.w3.org/2000/svg">
<path d="M0.385376 33.7973V37.7973H20.1854H39.9854V33.7973V29.7973H20.1854H0.385376V33.7973Z" fill="black"/>
<path d="M19.5853 49.7973V53.7973H29.7853H39.9853V49.7973V45.7973H29.7853H19.5853V49.7973Z" fill="black"/>
<path d="M19.5853 17.7973V21.7973H29.7853H39.9853V17.7973V13.7973H29.7853H19.5853V17.7973Z" fill="#FEB900"/>
<path d="M62.6477 22.3869V29.0666H60.3977V12.0041H66.6907C68.5579 12.0041 70.0188 12.4806 71.0735 13.4338C72.136 14.3869 72.6672 15.6486 72.6672 17.2189C72.6672 18.8752 72.1477 20.1525 71.1086 21.0509C70.0774 21.9416 68.5969 22.3869 66.6672 22.3869H62.6477ZM62.6477 20.547H66.6907C67.8938 20.547 68.8157 20.2658 69.4563 19.7033C70.0969 19.133 70.4172 18.3127 70.4172 17.2424C70.4172 16.2267 70.0969 15.4142 69.4563 14.8049C68.8157 14.1955 67.9368 13.8791 66.8196 13.8556H62.6477V20.547ZM82.886 29.0666C82.761 28.8166 82.6594 28.3713 82.5813 27.7306C81.5735 28.7775 80.3704 29.3009 78.9719 29.3009C77.7219 29.3009 76.6946 28.9494 75.8899 28.2463C75.093 27.5353 74.6946 26.6369 74.6946 25.5509C74.6946 24.2306 75.1946 23.2072 76.1946 22.4806C77.2024 21.7463 78.6165 21.3791 80.4368 21.3791H82.5461V20.383C82.5461 19.6252 82.3196 19.0236 81.8665 18.5783C81.4133 18.1252 80.7454 17.8986 79.8625 17.8986C79.0891 17.8986 78.4407 18.0939 77.9172 18.4845C77.3938 18.8752 77.1321 19.3478 77.1321 19.9025H74.9524C74.9524 19.2697 75.175 18.6603 75.6204 18.0744C76.0735 17.4806 76.6829 17.0119 77.4485 16.6681C78.2219 16.3244 79.0696 16.1525 79.9915 16.1525C81.4524 16.1525 82.5969 16.5197 83.425 17.2541C84.2532 17.9806 84.6829 18.9845 84.7141 20.2658V26.1017C84.7141 27.2658 84.8625 28.1916 85.1594 28.8791V29.0666H82.886ZM79.2883 27.4142C79.968 27.4142 80.6125 27.2384 81.2219 26.8869C81.8313 26.5353 82.2727 26.0783 82.5461 25.5158V22.9142H80.8469C78.1907 22.9142 76.8625 23.6916 76.8625 25.2463C76.8625 25.9259 77.0891 26.4572 77.5422 26.84C77.9954 27.2228 78.5774 27.4142 79.2883 27.4142ZM95.0852 19.8556C95.0852 19.2619 94.8586 18.7931 94.4055 18.4494C93.9524 18.0978 93.3313 17.922 92.5422 17.922C91.7766 17.922 91.136 18.1213 90.6204 18.5197C90.1125 18.9181 89.8586 19.3869 89.8586 19.9259H87.7024C87.7024 18.8244 88.1633 17.922 89.0852 17.2189C90.0071 16.5158 91.1594 16.1642 92.5422 16.1642C94.0266 16.1642 95.1829 16.4845 96.011 17.1252C96.8391 17.758 97.2532 18.6642 97.2532 19.8439C97.2532 20.4142 97.0813 20.9377 96.7375 21.4142C96.3938 21.8908 95.9055 22.2697 95.2727 22.5509C96.7493 23.0509 97.4875 24.0353 97.4875 25.5041C97.4875 26.6681 97.0383 27.59 96.1399 28.2697C95.2415 28.9494 94.0422 29.2892 92.5422 29.2892C91.0813 29.2892 89.8743 28.9338 88.9211 28.2228C87.9758 27.5041 87.5032 26.5353 87.5032 25.3166H89.6594C89.6594 25.9338 89.9329 26.465 90.4797 26.9103C91.0344 27.3478 91.7219 27.5666 92.5422 27.5666C93.3704 27.5666 94.0383 27.3752 94.5461 26.9924C95.054 26.6095 95.3079 26.1134 95.3079 25.5041C95.3079 24.7931 95.093 24.2853 94.6633 23.9806C94.2415 23.6681 93.5813 23.5119 92.6829 23.5119H90.5149V21.6838H92.8704C94.3469 21.6447 95.0852 21.0353 95.0852 19.8556ZM100.499 29.0666V16.3869H105.445C107.132 16.3869 108.425 16.6838 109.323 17.2775C110.23 17.8634 110.683 18.7267 110.683 19.8674C110.683 20.4533 110.507 20.9845 110.156 21.4611C109.804 21.9299 109.284 22.2892 108.597 22.5392C109.363 22.7189 109.976 23.0705 110.437 23.5939C110.906 24.1174 111.14 24.7424 111.14 25.4689C111.14 26.633 110.71 27.5236 109.851 28.1408C108.999 28.758 107.792 29.0666 106.23 29.0666H100.499ZM102.667 23.5002V27.3205H106.253C107.159 27.3205 107.835 27.1525 108.281 26.8166C108.734 26.4806 108.96 26.008 108.96 25.3986C108.96 24.133 108.031 23.5002 106.171 23.5002H102.667ZM102.667 21.7658H105.468C107.499 21.7658 108.515 21.172 108.515 19.9845C108.515 18.797 107.554 18.1838 105.632 18.1447H102.667V21.7658ZM122.214 16.3869H124.382V29.0666H122.214V19.8205L116.366 29.0666H114.198V16.3869H116.366V25.6447L122.214 16.3869ZM137.284 18.1447H133.031V29.0666H130.863V18.1447H126.691V16.3869H137.284V18.1447ZM147.597 16.3869H149.765V29.0666H147.597V19.8205L141.749 29.0666H139.581V16.3869H141.749V25.6447L147.597 16.3869ZM158.507 29.3009C156.788 29.3009 155.39 28.7384 154.312 27.6134C153.234 26.4806 152.695 24.9689 152.695 23.0783V22.6799C152.695 21.422 152.933 20.3009 153.409 19.3166C153.894 18.3244 154.566 17.5509 155.425 16.9963C156.292 16.4338 157.23 16.1525 158.238 16.1525C159.886 16.1525 161.167 16.6955 162.081 17.7814C162.995 18.8674 163.452 20.422 163.452 22.4455V23.3478H154.863C154.894 24.5978 155.257 25.6095 155.952 26.383C156.656 27.1486 157.546 27.5314 158.624 27.5314C159.39 27.5314 160.038 27.3752 160.57 27.0627C161.101 26.7502 161.566 26.3361 161.964 25.8205L163.288 26.8517C162.226 28.4845 160.632 29.3009 158.507 29.3009ZM158.238 17.9338C157.363 17.9338 156.628 18.2541 156.034 18.8947C155.441 19.5275 155.073 20.4181 154.933 21.5666H161.284V21.4025C161.222 20.3009 160.925 19.4494 160.394 18.8478C159.863 18.2384 159.144 17.9338 158.238 17.9338Z" fill="black"/>
<path d="M64.5195 44.5518H63.6714V38.8477H60.5161V44.5518H59.6724V38.1534H64.5195V44.5518ZM69.9468 42.2271C69.9468 42.9508 69.7812 43.5338 69.4502 43.9761C69.1191 44.4185 68.6709 44.6397 68.1055 44.6397C67.5283 44.6397 67.0742 44.4566 66.7432 44.0904V46.38H65.9302V39.7969H66.6729L66.7124 40.3243C67.0435 39.9141 67.5034 39.7091 68.0923 39.7091C68.6636 39.7091 69.1147 39.9244 69.4458 40.3551C69.7798 40.7857 69.9468 41.3848 69.9468 42.1524V42.2271ZM69.1338 42.1348C69.1338 41.5987 69.0195 41.1754 68.791 40.8648C68.5625 40.5543 68.249 40.399 67.8506 40.399C67.3584 40.399 66.9893 40.6173 66.7432 41.0538V43.3258C66.9863 43.7593 67.3584 43.9761 67.8594 43.9761C68.249 43.9761 68.5581 43.8223 68.7866 43.5147C69.0181 43.2042 69.1338 42.7442 69.1338 42.1348ZM70.7686 42.1304C70.7686 41.6646 70.8594 41.2457 71.041 40.8736C71.2256 40.5015 71.4805 40.2144 71.8057 40.0123C72.1338 39.8101 72.5073 39.7091 72.9263 39.7091C73.5737 39.7091 74.0967 39.9332 74.4951 40.3814C74.8965 40.8297 75.0972 41.4259 75.0972 42.17V42.2271C75.0972 42.69 75.0078 43.106 74.8291 43.4752C74.6533 43.8414 74.3999 44.127 74.0688 44.3321C73.7407 44.5372 73.3628 44.6397 72.9351 44.6397C72.2905 44.6397 71.7676 44.4156 71.3662 43.9674C70.9678 43.5191 70.7686 42.9259 70.7686 42.1876V42.1304ZM71.5859 42.2271C71.5859 42.7545 71.7075 43.1778 71.9507 43.4971C72.1968 43.8165 72.5249 43.9761 72.9351 43.9761C73.3481 43.9761 73.6763 43.815 73.9194 43.4927C74.1626 43.1676 74.2842 42.7135 74.2842 42.1304C74.2842 41.609 74.1597 41.1871 73.9106 40.8648C73.6646 40.5396 73.3364 40.377 72.9263 40.377C72.5249 40.377 72.2012 40.5367 71.9551 40.856C71.709 41.1754 71.5859 41.6324 71.5859 42.2271ZM79.1929 39.7969H80.0059V44.5518H79.1929V41.0845L77 44.5518H76.187V39.7969H77V43.2686L79.1929 39.7969ZM83.9258 41.0977C83.9258 40.8751 83.8408 40.6993 83.6709 40.5704C83.501 40.4385 83.2681 40.3726 82.9722 40.3726C82.6851 40.3726 82.4448 40.4473 82.2515 40.5968C82.061 40.7462 81.9658 40.9219 81.9658 41.1241H81.1572C81.1572 40.711 81.3301 40.3726 81.6758 40.109C82.0215 39.8453 82.4536 39.7135 82.9722 39.7135C83.5288 39.7135 83.9624 39.8336 84.2729 40.0738C84.5835 40.3111 84.7388 40.651 84.7388 41.0933C84.7388 41.3072 84.6743 41.5035 84.5454 41.6822C84.4165 41.8609 84.2334 42.003 83.9961 42.1085C84.5498 42.296 84.8267 42.6651 84.8267 43.2159C84.8267 43.6524 84.6582 43.9981 84.3213 44.253C83.9844 44.5079 83.5347 44.6353 82.9722 44.6353C82.4243 44.6353 81.9717 44.502 81.6143 44.2354C81.2598 43.9659 81.0825 43.6026 81.0825 43.1456H81.8911C81.8911 43.377 81.9937 43.5762 82.1987 43.7432C82.4067 43.9073 82.6646 43.9893 82.9722 43.9893C83.2827 43.9893 83.5332 43.9176 83.7236 43.774C83.9141 43.6304 84.0093 43.4444 84.0093 43.2159C84.0093 42.9493 83.9287 42.7589 83.7676 42.6446C83.6094 42.5274 83.3618 42.4688 83.0249 42.4688H82.2119V41.7833H83.0952C83.6489 41.7686 83.9258 41.5401 83.9258 41.0977ZM85.9561 44.5518V39.7969H87.8105C88.4434 39.7969 88.9282 39.9083 89.2651 40.1309C89.605 40.3507 89.7749 40.6744 89.7749 41.1021C89.7749 41.3218 89.709 41.5211 89.5771 41.6998C89.4453 41.8756 89.2505 42.0103 88.9927 42.1041C89.2798 42.1715 89.5098 42.3033 89.6826 42.4996C89.8584 42.6959 89.9463 42.9302 89.9463 43.2027C89.9463 43.6392 89.7852 43.9732 89.4629 44.2047C89.1436 44.4361 88.6909 44.5518 88.105 44.5518H85.9561ZM86.769 42.4644V43.897H88.1138C88.4536 43.897 88.707 43.8341 88.874 43.7081C89.0439 43.5821 89.1289 43.4049 89.1289 43.1763C89.1289 42.7017 88.7803 42.4644 88.083 42.4644H86.769ZM86.769 41.814H87.8193C88.5811 41.814 88.9619 41.5914 88.9619 41.1461C88.9619 40.7008 88.6016 40.4708 87.8809 40.4561H86.769V41.814ZM90.8076 42.1304C90.8076 41.6646 90.8984 41.2457 91.0801 40.8736C91.2646 40.5015 91.5195 40.2144 91.8447 40.0123C92.1729 39.8101 92.5464 39.7091 92.9653 39.7091C93.6128 39.7091 94.1357 39.9332 94.5342 40.3814C94.9355 40.8297 95.1362 41.4259 95.1362 42.17V42.2271C95.1362 42.69 95.0469 43.106 94.8682 43.4752C94.6924 43.8414 94.439 44.127 94.1079 44.3321C93.7798 44.5372 93.4019 44.6397 92.9741 44.6397C92.3296 44.6397 91.8066 44.4156 91.4053 43.9674C91.0068 43.5191 90.8076 42.9259 90.8076 42.1876V42.1304ZM91.625 42.2271C91.625 42.7545 91.7466 43.1778 91.9897 43.4971C92.2358 43.8165 92.564 43.9761 92.9741 43.9761C93.3872 43.9761 93.7153 43.815 93.9585 43.4927C94.2017 43.1676 94.3232 42.7135 94.3232 42.1304C94.3232 41.609 94.1987 41.1871 93.9497 40.8648C93.7036 40.5396 93.3755 40.377 92.9653 40.377C92.564 40.377 92.2402 40.5367 91.9941 40.856C91.748 41.1754 91.625 41.6324 91.625 42.2271ZM95.7998 43.8883L96.0811 43.5411C96.3975 43.1309 96.5776 42.5157 96.6216 41.6954L96.6963 39.7969H99.7593V43.8883H100.37V45.9493H99.5571V44.5518H96.2393V45.9493H95.4263L95.4307 43.8883H95.7998ZM96.7622 43.8883H98.9463V40.5484H97.4829L97.4346 41.6822C97.3848 42.6285 97.1606 43.3638 96.7622 43.8883ZM103.178 43.9761C103.468 43.9761 103.722 43.8883 103.938 43.7125C104.155 43.5367 104.275 43.317 104.299 43.0533H105.068C105.053 43.3258 104.959 43.585 104.787 43.8311C104.614 44.0772 104.382 44.2735 104.092 44.42C103.805 44.5665 103.5 44.6397 103.178 44.6397C102.531 44.6397 102.015 44.4244 101.631 43.9937C101.25 43.5601 101.06 42.9683 101.06 42.2183V42.0821C101.06 41.6192 101.145 41.2076 101.315 40.8472C101.485 40.4869 101.728 40.2071 102.044 40.0079C102.364 39.8087 102.74 39.7091 103.174 39.7091C103.707 39.7091 104.149 39.8687 104.501 40.1881C104.855 40.5074 105.044 40.9219 105.068 41.4317H104.299C104.275 41.1241 104.158 40.8721 103.947 40.6759C103.739 40.4766 103.481 40.377 103.174 40.377C102.761 40.377 102.44 40.5264 102.211 40.8253C101.986 41.1212 101.873 41.5504 101.873 42.1129V42.2667C101.873 42.8145 101.986 43.2364 102.211 43.5323C102.437 43.8282 102.759 43.9761 103.178 43.9761ZM109.515 40.4561H107.92V44.5518H107.107V40.4561H105.542V39.7969H109.515V40.4561ZM110.381 44.5518V39.7969H112.235C112.868 39.7969 113.353 39.9083 113.69 40.1309C114.03 40.3507 114.2 40.6744 114.2 41.1021C114.2 41.3218 114.134 41.5211 114.002 41.6998C113.87 41.8756 113.675 42.0103 113.417 42.1041C113.705 42.1715 113.935 42.3033 114.107 42.4996C114.283 42.6959 114.371 42.9302 114.371 43.2027C114.371 43.6392 114.21 43.9732 113.888 44.2047C113.568 44.4361 113.116 44.5518 112.53 44.5518H110.381ZM111.194 42.4644V43.897H112.539C112.878 43.897 113.132 43.8341 113.299 43.7081C113.469 43.5821 113.554 43.4049 113.554 43.1763C113.554 42.7017 113.205 42.4644 112.508 42.4644H111.194ZM111.194 41.814H112.244C113.006 41.814 113.387 41.5914 113.387 41.1461C113.387 40.7008 113.026 40.4708 112.306 40.4561H111.194V41.814ZM117.421 44.6397C116.776 44.6397 116.252 44.4288 115.848 44.0069C115.443 43.5821 115.241 43.0152 115.241 42.3062V42.1568C115.241 41.6851 115.331 41.2647 115.509 40.8956C115.691 40.5235 115.943 40.2335 116.265 40.0255C116.59 39.8145 116.942 39.7091 117.32 39.7091C117.938 39.7091 118.418 39.9127 118.761 40.3199C119.104 40.7271 119.275 41.3101 119.275 42.0689V42.4073H116.054C116.066 42.876 116.202 43.2554 116.463 43.5455C116.727 43.8326 117.061 43.9761 117.465 43.9761C117.752 43.9761 117.995 43.9176 118.194 43.8004C118.394 43.6832 118.568 43.5279 118.717 43.3345L119.214 43.7213C118.815 44.3336 118.218 44.6397 117.421 44.6397ZM117.32 40.377C116.992 40.377 116.716 40.4971 116.494 40.7374C116.271 40.9747 116.133 41.3087 116.081 41.7393H118.462V41.6778C118.439 41.2647 118.328 40.9454 118.128 40.7198C117.929 40.4913 117.66 40.377 117.32 40.377ZM124.105 44.5518H123.292V42.5216H121.108V44.5518H120.291V39.7969H121.108V41.858H123.292V39.7969H124.105V44.5518ZM129.299 44.5518H128.486V42.5216H126.302V44.5518H125.485V39.7969H126.302V41.858H128.486V39.7969H129.299V44.5518ZM130.394 42.1304C130.394 41.6646 130.484 41.2457 130.666 40.8736C130.851 40.5015 131.105 40.2144 131.431 40.0123C131.759 39.8101 132.132 39.7091 132.551 39.7091C133.199 39.7091 133.722 39.9332 134.12 40.3814C134.521 40.8297 134.722 41.4259 134.722 42.17V42.2271C134.722 42.69 134.633 43.106 134.454 43.4752C134.278 43.8414 134.025 44.127 133.694 44.3321C133.366 44.5372 132.988 44.6397 132.56 44.6397C131.916 44.6397 131.393 44.4156 130.991 43.9674C130.593 43.5191 130.394 42.9259 130.394 42.1876V42.1304ZM131.211 42.2271C131.211 42.7545 131.333 43.1778 131.576 43.4971C131.822 43.8165 132.15 43.9761 132.56 43.9761C132.973 43.9761 133.301 43.815 133.544 43.4927C133.788 43.1676 133.909 42.7135 133.909 42.1304C133.909 41.609 133.785 41.1871 133.536 40.8648C133.29 40.5396 132.961 40.377 132.551 40.377C132.15 40.377 131.826 40.5367 131.58 40.856C131.334 41.1754 131.211 41.6324 131.211 42.2271ZM137.434 42.1656H135.289V41.502H137.434V42.1656ZM141.762 40.4561H140.167V44.5518H139.354V40.4561H137.79V39.7969H141.762V40.4561ZM142.153 42.1304C142.153 41.6646 142.244 41.2457 142.426 40.8736C142.61 40.5015 142.865 40.2144 143.19 40.0123C143.519 39.8101 143.892 39.7091 144.311 39.7091C144.958 39.7091 145.481 39.9332 145.88 40.3814C146.281 40.8297 146.482 41.4259 146.482 42.17V42.2271C146.482 42.69 146.393 43.106 146.214 43.4752C146.038 43.8414 145.785 44.127 145.454 44.3321C145.125 44.5372 144.748 44.6397 144.32 44.6397C143.675 44.6397 143.152 44.4156 142.751 43.9674C142.353 43.5191 142.153 42.9259 142.153 42.1876V42.1304ZM142.971 42.2271C142.971 42.7545 143.092 43.1778 143.335 43.4971C143.582 43.8165 143.91 43.9761 144.32 43.9761C144.733 43.9761 145.061 43.815 145.304 43.4927C145.547 43.1676 145.669 42.7135 145.669 42.1304C145.669 41.609 145.544 41.1871 145.295 40.8648C145.049 40.5396 144.721 40.377 144.311 40.377C143.91 40.377 143.586 40.5367 143.34 40.856C143.094 41.1754 142.971 41.6324 142.971 42.2271ZM151.518 42.2271C151.518 42.9508 151.353 43.5338 151.021 43.9761C150.69 44.4185 150.242 44.6397 149.677 44.6397C149.1 44.6397 148.646 44.4566 148.314 44.0904V46.38H147.501V39.7969H148.244L148.284 40.3243C148.615 39.9141 149.075 39.7091 149.664 39.7091C150.235 39.7091 150.686 39.9244 151.017 40.3551C151.351 40.7857 151.518 41.3848 151.518 42.1524V42.2271ZM150.705 42.1348C150.705 41.5987 150.591 41.1754 150.362 40.8648C150.134 40.5543 149.82 40.399 149.422 40.399C148.93 40.399 148.561 40.6173 148.314 41.0538V43.3258C148.558 43.7593 148.93 43.9761 149.431 43.9761C149.82 43.9761 150.129 43.8223 150.358 43.5147C150.589 43.2042 150.705 42.7442 150.705 42.1348ZM155.627 40.4693H153.434V44.5518H152.617V39.7969H155.627V40.4693ZM156.031 42.1304C156.031 41.6646 156.122 41.2457 156.304 40.8736C156.488 40.5015 156.743 40.2144 157.068 40.0123C157.396 39.8101 157.77 39.7091 158.189 39.7091C158.836 39.7091 159.359 39.9332 159.758 40.3814C160.159 40.8297 160.36 41.4259 160.36 42.17V42.2271C160.36 42.69 160.271 43.106 160.092 43.4752C159.916 43.8414 159.663 44.127 159.332 44.3321C159.003 44.5372 158.625 44.6397 158.198 44.6397C157.553 44.6397 157.03 44.4156 156.629 43.9674C156.23 43.5191 156.031 42.9259 156.031 42.1876V42.1304ZM156.849 42.2271C156.849 42.7545 156.97 43.1778 157.213 43.4971C157.459 43.8165 157.788 43.9761 158.198 43.9761C158.611 43.9761 158.939 43.815 159.182 43.4927C159.425 43.1676 159.547 42.7135 159.547 42.1304C159.547 41.609 159.422 41.1871 159.173 40.8648C158.927 40.5396 158.599 40.377 158.189 40.377C157.788 40.377 157.464 40.5367 157.218 40.856C156.972 41.1754 156.849 41.6324 156.849 42.2271ZM161.454 44.5518V39.7969H163.309C163.941 39.7969 164.426 39.9083 164.763 40.1309C165.103 40.3507 165.273 40.6744 165.273 41.1021C165.273 41.3218 165.207 41.5211 165.075 41.6998C164.943 41.8756 164.749 42.0103 164.491 42.1041C164.778 42.1715 165.008 42.3033 165.181 42.4996C165.356 42.6959 165.444 42.9302 165.444 43.2027C165.444 43.6392 165.283 43.9732 164.961 44.2047C164.642 44.4361 164.189 44.5518 163.603 44.5518H161.454ZM162.267 42.4644V43.897H163.612C163.952 43.897 164.205 43.8341 164.372 43.7081C164.542 43.5821 164.627 43.4049 164.627 43.1763C164.627 42.7017 164.278 42.4644 163.581 42.4644H162.267ZM162.267 41.814H163.317C164.079 41.814 164.46 41.5914 164.46 41.1461C164.46 40.7008 164.1 40.4708 163.379 40.4561H162.267V41.814ZM169.457 44.5518C169.41 44.4581 169.372 44.2911 169.342 44.0509C168.964 44.4434 168.513 44.6397 167.989 44.6397C167.52 44.6397 167.135 44.5079 166.833 44.2442C166.534 43.9776 166.385 43.6407 166.385 43.2335C166.385 42.7384 166.572 42.3546 166.947 42.0821C167.325 41.8067 167.855 41.669 168.538 41.669H169.329V41.2955C169.329 41.0113 169.244 40.7857 169.074 40.6187C168.904 40.4488 168.654 40.3638 168.323 40.3638C168.033 40.3638 167.79 40.4371 167.593 40.5836C167.397 40.7301 167.299 40.9073 167.299 41.1153H166.481C166.481 40.878 166.565 40.6495 166.732 40.4298C166.902 40.2071 167.13 40.0313 167.417 39.9024C167.708 39.7735 168.025 39.7091 168.371 39.7091C168.919 39.7091 169.348 39.8468 169.659 40.1221C169.969 40.3946 170.13 40.7711 170.142 41.2515V43.44C170.142 43.8765 170.198 44.2237 170.309 44.4815V44.5518H169.457ZM168.107 43.9322C168.362 43.9322 168.604 43.8663 168.833 43.7344C169.061 43.6026 169.227 43.4312 169.329 43.2203V42.2447H168.692C167.696 42.2447 167.198 42.5362 167.198 43.1192C167.198 43.3741 167.283 43.5733 167.453 43.7169C167.623 43.8604 167.841 43.9322 168.107 43.9322ZM175.051 39.7969V44.5518H174.233V42.7017H173.007L171.887 44.5518H171.008L172.203 42.5787C171.898 42.4674 171.664 42.296 171.5 42.0645C171.339 41.8302 171.258 41.5577 171.258 41.2471C171.258 40.8135 171.421 40.4649 171.746 40.2012C172.071 39.9346 172.506 39.7999 173.051 39.7969H175.051ZM172.076 41.2559C172.076 41.4874 172.155 41.6749 172.313 41.8184C172.471 41.9591 172.681 42.0308 172.941 42.0338H174.233V40.4561H173.064C172.763 40.4561 172.522 40.5308 172.344 40.6802C172.165 40.8267 172.076 41.0186 172.076 41.2559ZM60.9863 53.526H60.3931V55.5518H59.5757V50.7969H60.3931V52.8096H60.9248L62.5244 50.7969H63.5088L61.6279 53.0821L63.667 55.5518H62.6343L60.9863 53.526ZM64.0537 53.1304C64.0537 52.6646 64.1445 52.2457 64.3262 51.8736C64.5107 51.5015 64.7656 51.2144 65.0908 51.0123C65.4189 50.8101 65.7925 50.7091 66.2114 50.7091C66.8589 50.7091 67.3818 50.9332 67.7803 51.3814C68.1816 51.8297 68.3823 52.4259 68.3823 53.17V53.2271C68.3823 53.69 68.293 54.106 68.1143 54.4752C67.9385 54.8414 67.6851 55.127 67.354 55.3321C67.0259 55.5372 66.6479 55.6397 66.2202 55.6397C65.5757 55.6397 65.0527 55.4156 64.6514 54.9674C64.2529 54.5191 64.0537 53.9259 64.0537 53.1876V53.1304ZM64.8711 53.2271C64.8711 53.7545 64.9927 54.1778 65.2358 54.4971C65.4819 54.8165 65.8101 54.9761 66.2202 54.9761C66.6333 54.9761 66.9614 54.815 67.2046 54.4927C67.4478 54.1676 67.5693 53.7135 67.5693 53.1304C67.5693 52.609 67.4448 52.1871 67.1958 51.8648C66.9497 51.5396 66.6216 51.377 66.2114 51.377C65.8101 51.377 65.4863 51.5367 65.2402 51.856C64.9941 52.1754 64.8711 52.6324 64.8711 53.2271ZM72.1396 54.4752L73.7568 50.7969H74.772V55.5518H73.959V52.0933L72.4209 55.5518H71.8584L70.2896 52.0186V55.5518H69.4766V50.7969H70.5312L72.1396 54.4752ZM79.9707 55.5518H79.1577V51.4693H76.9692V55.5518H76.1519V50.7969H79.9707V55.5518ZM84.2114 55.5518C84.1646 55.4581 84.1265 55.2911 84.0972 55.0509C83.7192 55.4434 83.2681 55.6397 82.7437 55.6397C82.2749 55.6397 81.8896 55.5079 81.5879 55.2442C81.2891 54.9776 81.1396 54.6407 81.1396 54.2335C81.1396 53.7384 81.3271 53.3546 81.7021 53.0821C82.0801 52.8067 82.6104 52.669 83.293 52.669H84.084V52.2955C84.084 52.0113 83.999 51.7857 83.8291 51.6187C83.6592 51.4488 83.4087 51.3638 83.0776 51.3638C82.7876 51.3638 82.5444 51.4371 82.3481 51.5836C82.1519 51.7301 82.0537 51.9073 82.0537 52.1153H81.2363C81.2363 51.878 81.3198 51.6495 81.4868 51.4298C81.6567 51.2071 81.8853 51.0313 82.1724 50.9024C82.4624 50.7735 82.7803 50.7091 83.126 50.7091C83.6738 50.7091 84.103 50.8468 84.4136 51.1221C84.7241 51.3946 84.8853 51.7711 84.897 52.2515V54.44C84.897 54.8765 84.9526 55.2237 85.064 55.4815V55.5518H84.2114ZM82.8623 54.9322C83.1172 54.9322 83.3589 54.8663 83.5874 54.7344C83.8159 54.6026 83.9814 54.4312 84.084 54.2203V53.2447H83.4468C82.4507 53.2447 81.9526 53.5362 81.9526 54.1192C81.9526 54.3741 82.0376 54.5733 82.2075 54.7169C82.3774 54.8604 82.5957 54.9322 82.8623 54.9322ZM90.0562 55.5518H89.2432V53.5216H87.0591V55.5518H86.2417V50.7969H87.0591V52.858H89.2432V50.7969H90.0562V55.5518ZM94.4419 50.7969H95.2549V55.5518H94.4419V52.0845L92.249 55.5518H91.436V50.7969H92.249V54.2686L94.4419 50.7969ZM100.194 50.7969V55.5518H99.377V53.7017H98.1509L97.0303 55.5518H96.1514L97.3467 53.5787C97.042 53.4674 96.8076 53.296 96.6436 53.0645C96.4824 52.8302 96.4019 52.5577 96.4019 52.2471C96.4019 51.8135 96.5645 51.4649 96.8896 51.2012C97.2148 50.9346 97.6499 50.7999 98.1948 50.7969H100.194ZM97.2192 52.2559C97.2192 52.4874 97.2983 52.6749 97.4565 52.8184C97.6147 52.9591 97.8242 53.0308 98.085 53.0338H99.377V51.4561H98.208C97.9062 51.4561 97.666 51.5308 97.4873 51.6802C97.3086 51.8267 97.2192 52.0186 97.2192 52.2559Z" fill="#6F6F6F"/>
</svg>
